<?xml version="1.0" encoding="UTF-8"?>
<svg version="1.1" xmlns="http://www.w3.org/2000/svg" width="557" height="464">
<path d="M0 0 C0.69662247 -0.00044186 1.39324493 -0.00088371 2.11097717 -0.00133896 C40.50705947 -0.01408611 80.81420776 0.39236558 118.1875 10.25 C120.14180694 10.5485038 122.10038766 10.82055932 124.0625 11.0625 C132.6596825 12.33060938 140.87674962 14.77197868 149.1875 17.25 C150.79818359 17.71212891 150.79818359 17.71212891 152.44140625 18.18359375 C165.35019151 22.13526271 178.65492879 28.75213005 189.1875 37.25 C189.1875 37.91 189.1875 38.57 189.1875 39.25 C190.5075 39.91 191.8275 40.57 193.1875 41.25 C193.1875 41.91 193.1875 42.57 193.1875 43.25 C194.5075 43.91 195.8275 44.57 197.1875 45.25 C197.1875 45.91 197.1875 46.57 197.1875 47.25 C198.1775 47.58 199.1675 47.91 200.1875 48.25 C219.94799747 73.75204637 222.59197056 108.026059 225.75 138.9375 C225.86480713 140.05608398 225.97961426 141.17466797 226.09790039 142.32714844 C226.40993655 145.50384066 226.70181566 148.68156856 226.97796631 151.86157227 C227.12787082 153.5703003 227.2827749 155.27859266 227.440979 156.98657227 C229.12548955 175.42824502 229.50343578 193.74740863 229.44824219 212.24804688 C229.43682834 216.10766076 229.44364519 219.96699929 229.4551239 223.82660389 C229.50025249 241.72875999 229.05199337 259.42515969 227.1875 277.25 C227.11599731 277.95435181 227.04449463 278.65870361 226.9708252 279.38439941 C226.59575031 283.0346776 226.16220534 286.67396178 225.6875 290.3125 C225.57019531 291.27736328 225.45289063 292.24222656 225.33203125 293.23632812 C224.80317076 297.4018153 224.20103975 301.46367342 223.1484375 305.53125 C222.26673242 308.94337697 221.7315549 312.19395047 221.3125 315.6875 C217.49149755 343.35274252 207.34814408 369.68514214 185.23828125 387.8515625 C180.71019553 391.25 180.71019553 391.25 177.1875 391.25 C177.1875 391.91 177.1875 392.57 177.1875 393.25 C163.62356373 401.51140395 148.59089075 405.83736559 133.1875 409.25 C132.46030762 409.4142749 131.73311523 409.5785498 130.98388672 409.74780273 C123.77150356 411.29604529 116.52240142 412.0835269 109.1875 412.8125 C107.89585937 412.94180908 106.60421875 413.07111816 105.2734375 413.2043457 C91.74231948 414.52881573 91.74231948 414.52881573 85.1875 414.9375 C84.51944336 414.98092529 83.85138672 415.02435059 83.16308594 415.0690918 C78.46306157 415.30604503 73.84050425 415.15792301 69.140625 414.91796875 C52.86015615 413.63364631 52.86015615 413.63364631 38.75 420.4375 C36.79236339 422.30343088 35.01016391 424.24317391 33.1875 426.25 C27.77152113 431.25 27.77152113 431.25 25.1875 431.25 C24.8575 432.24 24.5275 433.23 24.1875 434.25 C17.2771079 440.34926376 10.60436039 444.10061799 1.25 444.0625 C0.20489258 444.06092896 0.20489258 444.06092896 -0.86132812 444.05932617 C-8.65377375 443.66877178 -13.7930258 439.45439974 -19.75 434.8125 C-20.28995605 434.39363525 -20.82991211 433.97477051 -21.38623047 433.54321289 C-24.66215023 430.98647653 -27.89176415 428.37660695 -31.10546875 425.7421875 C-31.82549072 425.15236084 -32.5455127 424.56253418 -33.28735352 423.95483398 C-34.70176389 422.79224551 -36.11252639 421.6252023 -37.51928711 420.45336914 C-38.16518799 419.92090576 -38.81108887 419.38844238 -39.4765625 418.83984375 C-40.04842285 418.36409912 -40.6202832 417.88835449 -41.20947266 417.39819336 C-44.31469943 415.17402621 -47.06426577 415.14786798 -50.73828125 415.22265625 C-51.74713379 415.23643311 -52.75598633 415.25020996 -53.79541016 415.2644043 C-54.8941748 415.28027588 -55.99293945 415.29614746 -57.125 415.3125 C-80.12067837 415.4626192 -103.07502629 413.67655854 -125.8125 410.25 C-126.90304688 410.08612793 -126.90304688 410.08612793 -128.015625 409.91894531 C-145.65444324 407.14151511 -163.969785 400.30565615 -178.8125 390.25 C-178.8125 389.59 -178.8125 388.93 -178.8125 388.25 C-179.39515625 387.98316406 -179.9778125 387.71632813 -180.578125 387.44140625 C-187.67098195 383.65937588 -194.12401485 376.6841977 -198.8125 370.25 C-198.8125 369.26 -198.8125 368.27 -198.8125 367.25 C-199.4725 367.25 -200.1325 367.25 -200.8125 367.25 C-210.10522101 349.93817963 -215.20724248 333.1852372 -218.37695312 313.81640625 C-219.30541174 308.34557835 -220.34277894 302.92706492 -221.83984375 297.58203125 C-223.31036216 291.83939093 -223.66866904 285.90695722 -224.19018555 280.01831055 C-224.37126621 277.9795384 -224.56270341 275.94195625 -224.75585938 273.90429688 C-226.51694486 254.93983686 -227.01554821 236.04172307 -227 217 C-227.00009064 215.28638275 -227.00009064 215.28638275 -227.00018311 213.53814697 C-226.98737567 196.48429681 -226.54385249 179.59716913 -225.09033203 162.60253906 C-224.80513839 159.16116902 -224.56682428 155.71910795 -224.33984375 152.2734375 C-223.52301614 140.1565856 -222.22664252 128.29022489 -220.15185547 116.32714844 C-219.62883624 113.12581924 -219.2596847 109.90795776 -218.875 106.6875 C-216.70419071 90.17511461 -212.77156165 73.98900306 -204.8125 59.25 C-204.1525 59.25 -203.4925 59.25 -202.8125 59.25 C-202.72742188 58.70730469 -202.64234375 58.16460937 -202.5546875 57.60546875 C-201.56186734 54.45457109 -199.88022532 52.22752063 -197.9375 49.5625 C-197.23882812 48.58925781 -196.54015625 47.61601563 -195.8203125 46.61328125 C-193.8125 44.25 -193.8125 44.25 -190.8125 43.25 C-190.53277344 42.65703125 -190.25304687 42.0640625 -189.96484375 41.453125 C-188.36274074 38.39012129 -186.16813294 37.00304354 -183.375 35 C-182.40691406 34.29359375 -181.43882812 33.5871875 -180.44140625 32.859375 C-177.8125 31.25 -177.8125 31.25 -174.8125 31.25 C-174.8125 30.59 -174.8125 29.93 -174.8125 29.25 C-170.82437464 27.22557088 -166.82351 25.22869995 -162.8125 23.25 C-162.05066406 22.87101562 -161.28882813 22.49203125 -160.50390625 22.1015625 C-126.55686285 6.05853632 -83.69184625 4.1453004 -46.82565308 1.4050293 C-45.02346863 1.26624631 -43.22265905 1.10987144 -41.42211914 0.95117188 C-27.64777039 -0.16580295 -13.81013571 0.00401067 0 0 Z M-49.24328613 25.43734741 C-51.01123854 25.56048569 -52.77938478 25.68087827 -54.54772949 25.79824829 C-64.85898018 26.48973668 -74.92255465 27.59278077 -85.07226562 29.55932617 C-88.77002263 30.2421561 -92.45413572 30.74476979 -96.1875 31.1875 C-115.12688148 33.62999951 -135.15377012 37.86433501 -152.8125 45.25 C-153.48925781 45.53230469 -154.16601562 45.81460938 -154.86328125 46.10546875 C-164.62523301 50.58540252 -176.80494741 58.46251084 -181.8125 68.25 C-182.19019531 68.88550781 -182.56789063 69.52101562 -182.95703125 70.17578125 C-188.24665705 79.17293934 -195.65232292 94.68785657 -193.33862305 105.45532227 C-193.16500244 106.04756592 -192.99138184 106.63980957 -192.8125 107.25 C-192.28140625 106.16460937 -191.7503125 105.07921875 -191.203125 103.9609375 C-190.4898009 102.51551761 -189.77624699 101.07021111 -189.0625 99.625 C-188.71445313 98.91214844 -188.36640625 98.19929688 -188.0078125 97.46484375 C-186.35109413 94.12072704 -184.66706911 90.92715272 -182.546875 87.8515625 C-180.62759993 85.49376473 -180.62759993 85.49376473 -180.8125 83.25 C-180.1525 83.25 -179.4925 83.25 -178.8125 83.25 C-177.30403848 81.72379124 -177.30403848 81.72379124 -175.8125 79.8125 C-173.01588983 76.35169492 -173.01588983 76.35169492 -170.8125 75.25 C-170.8125 74.59 -170.8125 73.93 -170.8125 73.25 C-169.72582031 72.86134766 -169.72582031 72.86134766 -168.6171875 72.46484375 C-165.70806166 71.20476278 -163.47788828 69.69952963 -160.9375 67.8125 C-157.00301834 65.00628882 -153.35268091 62.97213759 -148.8125 61.25 C-146.8746344 60.4175172 -144.93717239 59.58409461 -143 58.75 C-137.66821119 56.54102215 -132.36888662 54.78766314 -126.8125 53.25 C-125.50489303 52.86696016 -124.19763007 52.48274488 -122.890625 52.09765625 C-108.48904521 47.90936761 -93.88239389 44.83084591 -79.02734375 42.7421875 C-76.2549043 42.3177314 -73.51641329 41.81701921 -70.76171875 41.29296875 C-64.43351504 40.13080941 -58.0806375 39.39081955 -51.6875 38.6875 C-50.57246094 38.56181641 -49.45742187 38.43613281 -48.30859375 38.30664062 C-45.14363562 37.95062943 -41.97816735 37.59964301 -38.8125 37.25 C-38.12063095 37.1687236 -37.4287619 37.0874472 -36.71592712 37.00370789 C-31.65367561 36.41758109 -26.60760406 35.99237236 -21.51953125 35.71484375 C-20.74805252 35.67168533 -19.97657379 35.62852692 -19.18171692 35.58406067 C19.18660222 33.48830713 59.31040517 31.52862081 97.30078125 38.5390625 C100.90528682 39.1983791 104.48885099 39.68146514 108.125 40.125 C124.50428365 42.42653869 140.8795655 47.28862543 156.25 53.3125 C156.88204346 53.55798584 157.51408691 53.80347168 158.1652832 54.05639648 C161.57130562 55.42975552 164.31061442 56.98913627 167.1875 59.25 C169.16764432 59.97351427 171.16571315 60.65265389 173.1875 61.25 C173.1875 61.91 173.1875 62.57 173.1875 63.25 C174.81933107 64.30589069 176.49542999 65.2936126 178.1875 66.25 C180.19330329 67.57458708 182.19465862 68.9059907 184.1875 70.25 C177.07124723 54.07669826 160.69396636 47.38149673 145.1875 41.25 C144.39085937 40.91226563 143.59421875 40.57453125 142.7734375 40.2265625 C84.97950948 18.40106098 11.17448716 21.215785 -49.24328613 25.43734741 Z M78.1875 68.25 C76.18160701 71.34241836 76.18504444 73.11003312 76.25 76.8125 C77.36943457 80.91709342 78.65240835 82.00823456 82.1875 84.25 C84.73432111 85.52341055 86.84961847 85.57938094 89.69140625 85.828125 C103.12896117 87.09859523 115.40989465 88.87034568 128.1875 93.25 C132.69733636 94.95690222 132.69733636 94.95690222 137.33203125 94.7109375 C141.89294045 91.84624991 141.89294045 91.84624991 144.1875 87.25 C144.61275055 83.35186997 144.61185001 81.04335003 142.75 77.5625 C130.31096084 66.33702564 92.21462511 58.26916098 78.1875 68.25 Z M-194.8125 107.25 C-193.8125 109.25 -193.8125 109.25 -193.8125 109.25 Z " fill="#F5B845" transform="translate(283.8125,18.75)"/>
<path d="M0 0 C0.69662247 -0.00044186 1.39324493 -0.00088371 2.11097717 -0.00133896 C40.50705947 -0.01408611 80.81420776 0.39236558 118.1875 10.25 C120.14180694 10.5485038 122.10038766 10.82055932 124.0625 11.0625 C132.6596825 12.33060938 140.87674962 14.77197868 149.1875 17.25 C150.79818359 17.71212891 150.79818359 17.71212891 152.44140625 18.18359375 C165.35019151 22.13526271 178.65492879 28.75213005 189.1875 37.25 C189.1875 37.91 189.1875 38.57 189.1875 39.25 C190.5075 39.91 191.8275 40.57 193.1875 41.25 C193.1875 41.91 193.1875 42.57 193.1875 43.25 C194.5075 43.91 195.8275 44.57 197.1875 45.25 C197.1875 45.91 197.1875 46.57 197.1875 47.25 C198.1775 47.58 199.1675 47.91 200.1875 48.25 C219.94799747 73.75204637 222.59197056 108.026059 225.75 138.9375 C225.86480713 140.05608398 225.97961426 141.17466797 226.09790039 142.32714844 C226.40993655 145.50384066 226.70181566 148.68156856 226.97796631 151.86157227 C227.12787082 153.5703003 227.2827749 155.27859266 227.440979 156.98657227 C229.12548955 175.42824502 229.50343578 193.74740863 229.44824219 212.24804688 C229.43682834 216.10766076 229.44364519 219.96699929 229.4551239 223.82660389 C229.50025249 241.72875999 229.05199337 259.42515969 227.1875 277.25 C227.11599731 277.95435181 227.04449463 278.65870361 226.9708252 279.38439941 C226.59575031 283.0346776 226.16220534 286.67396178 225.6875 290.3125 C225.57019531 291.27736328 225.45289063 292.24222656 225.33203125 293.23632812 C224.80317076 297.4018153 224.20103975 301.46367342 223.1484375 305.53125 C222.26673242 308.94337697 221.7315549 312.19395047 221.3125 315.6875 C217.49149755 343.35274252 207.34814408 369.68514214 185.23828125 387.8515625 C180.71019553 391.25 180.71019553 391.25 177.1875 391.25 C177.1875 391.91 177.1875 392.57 177.1875 393.25 C163.62356373 401.51140395 148.59089075 405.83736559 133.1875 409.25 C132.46030762 409.4142749 131.73311523 409.5785498 130.98388672 409.74780273 C123.77150356 411.29604529 116.52240142 412.0835269 109.1875 412.8125 C107.89585937 412.94180908 106.60421875 413.07111816 105.2734375 413.2043457 C91.74231948 414.52881573 91.74231948 414.52881573 85.1875 414.9375 C84.51944336 414.98092529 83.85138672 415.02435059 83.16308594 415.0690918 C78.46306157 415.30604503 73.84050425 415.15792301 69.140625 414.91796875 C52.86015615 413.63364631 52.86015615 413.63364631 38.75 420.4375 C36.79236339 422.30343088 35.01016391 424.24317391 33.1875 426.25 C27.77152113 431.25 27.77152113 431.25 25.1875 431.25 C24.8575 432.24 24.5275 433.23 24.1875 434.25 C17.2771079 440.34926376 10.60436039 444.10061799 1.25 444.0625 C0.20489258 444.06092896 0.20489258 444.06092896 -0.86132812 444.05932617 C-8.65377375 443.66877178 -13.7930258 439.45439974 -19.75 434.8125 C-20.28995605 434.39363525 -20.82991211 433.97477051 -21.38623047 433.54321289 C-24.66215023 430.98647653 -27.89176415 428.37660695 -31.10546875 425.7421875 C-31.82549072 425.15236084 -32.5455127 424.56253418 -33.28735352 423.95483398 C-34.70176389 422.79224551 -36.11252639 421.6252023 -37.51928711 420.45336914 C-38.16518799 419.92090576 -38.81108887 419.38844238 -39.4765625 418.83984375 C-40.04842285 418.36409912 -40.6202832 417.88835449 -41.20947266 417.39819336 C-44.31469943 415.17402621 -47.06426577 415.14786798 -50.73828125 415.22265625 C-51.74713379 415.23643311 -52.75598633 415.25020996 -53.79541016 415.2644043 C-54.8941748 415.28027588 -55.99293945 415.29614746 -57.125 415.3125 C-80.12067837 415.4626192 -103.07502629 413.67655854 -125.8125 410.25 C-126.90304688 410.08612793 -126.90304688 410.08612793 -128.015625 409.91894531 C-145.65444324 407.14151511 -163.969785 400.30565615 -178.8125 390.25 C-178.8125 389.59 -178.8125 388.93 -178.8125 388.25 C-179.39515625 387.98316406 -179.9778125 387.71632813 -180.578125 387.44140625 C-187.67098195 383.65937588 -194.12401485 376.6841977 -198.8125 370.25 C-198.8125 369.26 -198.8125 368.27 -198.8125 367.25 C-199.4725 367.25 -200.1325 367.25 -200.8125 367.25 C-210.10522101 349.93817963 -215.20724248 333.1852372 -218.37695312 313.81640625 C-219.30541174 308.34557835 -220.34277894 302.92706492 -221.83984375 297.58203125 C-223.31036216 291.83939093 -223.66866904 285.90695722 -224.19018555 280.01831055 C-224.37126621 277.9795384 -224.56270341 275.94195625 -224.75585938 273.90429688 C-226.51694486 254.93983686 -227.01554821 236.04172307 -227 217 C-227.00009064 215.28638275 -227.00009064 215.28638275 -227.00018311 213.53814697 C-226.98737567 196.48429681 -226.54385249 179.59716913 -225.09033203 162.60253906 C-224.80513839 159.16116902 -224.56682428 155.71910795 -224.33984375 152.2734375 C-223.52301614 140.1565856 -222.22664252 128.29022489 -220.15185547 116.32714844 C-219.62883624 113.12581924 -219.2596847 109.90795776 -218.875 106.6875 C-216.70419071 90.17511461 -212.77156165 73.98900306 -204.8125 59.25 C-204.1525 59.25 -203.4925 59.25 -202.8125 59.25 C-202.72742188 58.70730469 -202.64234375 58.16460937 -202.5546875 57.60546875 C-201.56186734 54.45457109 -199.88022532 52.22752063 -197.9375 49.5625 C-197.23882812 48.58925781 -196.54015625 47.61601563 -195.8203125 46.61328125 C-193.8125 44.25 -193.8125 44.25 -190.8125 43.25 C-190.53277344 42.65703125 -190.25304687 42.0640625 -189.96484375 41.453125 C-188.36274074 38.39012129 -186.16813294 37.00304354 -183.375 35 C-182.40691406 34.29359375 -181.43882812 33.5871875 -180.44140625 32.859375 C-177.8125 31.25 -177.8125 31.25 -174.8125 31.25 C-174.8125 30.59 -174.8125 29.93 -174.8125 29.25 C-170.82437464 27.22557088 -166.82351 25.22869995 -162.8125 23.25 C-162.05066406 22.87101562 -161.28882813 22.49203125 -160.50390625 22.1015625 C-126.55686285 6.05853632 -83.69184625 4.1453004 -46.82565308 1.4050293 C-45.02346863 1.26624631 -43.22265905 1.10987144 -41.42211914 0.95117188 C-27.64777039 -0.16580295 -13.81013571 0.00401067 0 0 Z M-49.24328613 25.43734741 C-51.01123854 25.56048569 -52.77938478 25.68087827 -54.54772949 25.79824829 C-64.85898018 26.48973668 -74.92255465 27.59278077 -85.07226562 29.55932617 C-88.77002263 30.2421561 -92.45413572 30.74476979 -96.1875 31.1875 C-115.12688148 33.62999951 -135.15377012 37.86433501 -152.8125 45.25 C-153.48925781 45.53230469 -154.16601562 45.81460938 -154.86328125 46.10546875 C-164.62523301 50.58540252 -176.80494741 58.46251084 -181.8125 68.25 C-182.19019531 68.88550781 -182.56789063 69.52101562 -182.95703125 70.17578125 C-190.73656343 83.40803689 -193.90999852 98.64143783 -195.23828125 113.8359375 C-195.54039516 116.85970368 -196.14442821 119.34999714 -197.23828125 122.1796875 C-199.85028766 129.62033312 -200.29174678 137.57091487 -201 145.375 C-201.08621613 146.31042633 -201.17243225 147.24585266 -201.26126099 148.20962524 C-203.21160431 170.44353911 -203.22655973 192.73257464 -203.24640274 215.03524017 C-203.24996169 217.90659229 -203.25863073 220.7778931 -203.26815796 223.64923096 C-205.36101352 272.25411533 -205.36101352 272.25411533 -187.77734375 315.703125 C-179.10211785 323.95324908 -168.36209603 327.91996539 -156.8125 330.25 C-155.63519821 330.51029495 -155.63519821 330.51029495 -154.43411255 330.77584839 C-151.94674947 331.22571929 -149.69826632 331.3768143 -147.17529297 331.37939453 C-146.28180145 331.38254669 -145.38830994 331.38569885 -144.46774292 331.38894653 C-143.02578049 331.38591019 -143.02578049 331.38591019 -141.5546875 331.3828125 C-140.53819122 331.38376923 -139.52169495 331.38472595 -138.47439575 331.38571167 C-136.31072936 331.3863924 -134.14706091 331.38454557 -131.98339844 331.38037109 C-128.77533957 331.37514315 -125.56742878 331.38025491 -122.359375 331.38671875 C-112.86468833 331.38880168 -103.3882501 331.31288629 -93.90207958 330.88935661 C-76.61213649 330.12358664 -59.33750049 330.10182067 -42.03496718 330.1156745 C-37.77887017 330.11825856 -33.52277499 330.11584469 -29.26667786 330.11428833 C-22.14254358 330.11248645 -15.01841978 330.11482288 -7.89428711 330.11962891 C0.30221539 330.12509503 8.49869309 330.12328389 16.69519502 330.1178025 C23.79653852 330.11324688 30.89787463 330.11263196 37.99921912 330.11524117 C42.21347599 330.11678703 46.42772123 330.1170442 50.64197731 330.11370468 C54.5944261 330.11078906 58.54684315 330.11286851 62.49928856 330.11859894 C63.93666914 330.11990575 65.37405245 330.11956847 66.81143188 330.11733627 C74.91364082 330.10592535 82.92656463 330.34886562 91.00252342 331.01851368 C96.68984866 331.43187245 102.3818241 331.45280293 108.08203125 331.48828125 C109.35366623 331.496353 110.62530121 331.50442474 111.93547058 331.51274109 C114.60520966 331.52646491 117.27483037 331.53751505 119.94458008 331.54516602 C122.64305205 331.55402252 125.34100859 331.57492363 128.03930664 331.60668945 C142.91943236 331.77797931 156.92349068 331.89820296 171.1875 327.25 C172.69292358 326.76781006 172.69292358 326.76781006 174.22875977 326.27587891 C184.18893166 322.87966897 191.21142317 316.40424047 196.1875 307.25 C196.86619141 306.04537109 196.86619141 306.04537109 197.55859375 304.81640625 C209.38183299 280.64367083 206.57777925 245.04562477 206.5 218.8125 C206.49884186 217.58786041 206.49768372 216.36322083 206.49649048 215.10147095 C206.45378015 192.04815366 205.32880156 169.19814677 203.1875 146.25 C203.12242249 145.5381958 203.05734497 144.8263916 202.99029541 144.09301758 C202.20040095 135.46047331 201.29248734 126.84832254 200.1875 118.25 C200.07970215 117.4034082 199.9719043 116.55681641 199.86083984 115.68457031 C198.65801662 106.61997627 196.69941709 97.87199477 194.25 89.0625 C194.00918701 88.18859619 193.76837402 87.31469238 193.52026367 86.41430664 C191.99832592 81.1974619 190.07422099 76.8575309 187.1875 72.25 C186.5275 72.25 185.8675 72.25 185.1875 72.25 C184.98125 71.59 184.775 70.93 184.5625 70.25 C177.21466364 54.21835702 160.68926053 47.37963597 145.1875 41.25 C144.39085937 40.91226563 143.59421875 40.57453125 142.7734375 40.2265625 C84.97950948 18.40106098 11.17448716 21.215785 -49.24328613 25.43734741 Z " fill="#030202" transform="translate(283.8125,18.75)"/>
<path d="M0 0 C2.79135071 0.90530293 5.56145189 1.8238311 8.28515625 2.91796875 C24.2075333 9.18605383 39.75703794 9.4256603 56.6496582 9.28125 C60.26719787 9.2503865 63.88429522 9.24028661 67.50195312 9.234375 C69.89323421 9.22518776 72.28451105 9.2148066 74.67578125 9.203125 C76.22885735 9.19675018 76.22885735 9.19675018 77.81330872 9.19024658 C84.56603338 9.12947063 91.2995895 8.91413483 98.04636765 8.63465309 C113.72819872 7.99321634 129.38690068 7.85079941 145.08031964 7.8656745 C148.71312855 7.86827811 152.34593545 7.86583871 155.97874451 7.86428833 C162.07738711 7.86248762 168.17601747 7.86481522 174.2746582 7.86962891 C181.22108244 7.87505014 188.16747721 7.87331581 195.11390072 7.8678025 C201.17947239 7.8631897 207.24503546 7.86266026 213.31060833 7.86524117 C216.88834196 7.86676227 220.466062 7.8671185 224.04379463 7.86370468 C240.79877774 7.84986398 257.52634738 8.07578231 274.27136326 8.6331768 C286.39660576 9.03652439 298.51568632 9.21896921 310.64746094 9.24023438 C312.9111645 9.24682833 315.17485688 9.26067748 317.43847656 9.28125 C335.83550089 9.44816375 352.54978666 8.34484793 369.9609375 2.0859375 C372.31010011 1.2465195 374.56979067 0.53871635 377 0 C366.16277491 20.90585266 351.34473535 32.80203043 329.03173828 39.98413086 C308.0565391 46.35183885 286.43912834 48.12229763 264.59765625 48.16796875 C262.9281189 48.17423782 262.9281189 48.17423782 261.22485352 48.18063354 C256.67533878 48.19250778 252.12675893 48.1975648 247.57739258 48.15454102 C244.18749259 48.12762003 240.80003132 48.14437625 237.41015625 48.16796875 C236.3944606 48.14743942 235.37876495 48.1269101 234.33229065 48.10575867 C226.55062786 48.21111038 222.60900639 50.78777993 217 56 C215.67598014 57.09023078 214.34621838 58.17357268 213.0078125 59.24609375 C212.37077393 59.76993652 211.73373535 60.2937793 211.07739258 60.83349609 C207.73646615 63.57826121 204.37038858 66.29154513 201 69 C200.4332959 69.45745605 199.8665918 69.91491211 199.28271484 70.38623047 C197.80643725 71.56661524 196.3101584 72.72186383 194.8125 73.875 C193.99394531 74.51179688 193.17539062 75.14859375 192.33203125 75.8046875 C190 77 190 77 187.59765625 76.99609375 C184.10667798 75.65744795 181.47323792 73.54417413 178.625 71.1875 C178.02429688 70.70337646 177.42359375 70.21925293 176.8046875 69.72045898 C175.52588984 68.68886692 174.25025019 67.65334975 172.97753906 66.61425781 C170.31401648 64.44003419 167.63612574 62.28403058 164.95458984 60.13208008 C163.6840237 59.11178658 162.41597102 58.08835237 161.15087891 57.0612793 C160.56483887 56.58859619 159.97879883 56.11591309 159.375 55.62890625 C158.86710938 55.21713135 158.35921875 54.80535645 157.8359375 54.38110352 C156.92714844 53.69745728 156.92714844 53.69745728 156 53 C155.16573486 52.29762207 154.33146973 51.59524414 153.47192383 50.87158203 C148.63036287 48.26168073 144.49364509 48.41553495 139.07421875 48.42578125 C138.01322464 48.41161667 136.95223053 48.39745209 135.85908508 48.38285828 C132.46845479 48.3410466 129.07835107 48.32576907 125.6875 48.3125 C121.25382917 48.27366165 116.82028459 48.22504768 112.38671875 48.17578125 C111.31244629 48.16513641 110.23817383 48.15449158 109.13134766 48.14352417 C97.09383351 48.00485219 85.03658254 47.61728435 73.125 45.75 C72.30112793 45.62214111 71.47725586 45.49428223 70.62841797 45.36254883 C47.4650058 41.56075187 22.19022796 34.18652642 7.74316406 14.26708984 C0 3.04853273 0 3.04853273 0 0 Z " fill="#D6A763" transform="translate(97,362)"/>
<path d="M0 0 C5.89344426 1.26288091 10.72982889 3.10484082 16 6 C16.82628906 6.45246094 17.65257812 6.90492187 18.50390625 7.37109375 C20.67518541 8.57056409 22.84015665 9.78008848 25 11 C25 11.66 25 12.32 25 13 C25.54785156 13.08636719 26.09570312 13.17273438 26.66015625 13.26171875 C32.73537479 15.17860741 38.24962033 20.2854632 41.65234375 25.5625 C52.51550718 49.99594107 53.71932461 78.68328966 55.8314209 104.94378662 C55.98882383 106.86368071 56.15661369 108.78271534 56.32519531 110.70166016 C59.78304728 150.45598047 59.9579181 191.37543219 55 231 C54.8467627 232.25184082 54.69352539 233.50368164 54.53564453 234.79345703 C53.16519689 245.24089555 50.42516043 254.50220717 44 263 C43.1646875 264.2375 43.1646875 264.2375 42.3125 265.5 C33.64135082 274.87421533 18.59980203 279.99201584 6 281 C3.73046875 280.5390625 3.73046875 280.5390625 2 280 C2.94875 279.319375 3.8975 278.63875 4.875 277.9375 C24.59797157 260.89493228 29.95877753 230.53002484 33 206 C33.13680176 204.96488281 33.27360352 203.92976562 33.41455078 202.86328125 C38.51540508 162.88454494 38.17760442 120.9636952 33 81 C32.8691803 79.98700836 32.8691803 79.98700836 32.73571777 78.95355225 C29.57071231 54.72569834 25.52603221 25.93246802 10 6 C7.74036222 4.54845448 7.74036222 4.54845448 5.3125 3.75 C1.08651911 2.17303823 1.08651911 2.17303823 0 0 Z " fill="#EF9830" transform="translate(432,69)"/>
<path d="M0 0 C9.62863564 4.93888921 14.35848608 11.6089368 18.94140625 21.19140625 C21.17679479 32.36834897 18.96986316 41.91171056 13.16796875 51.66796875 C7.56389411 59.03576231 -1.28578542 63.55663936 -10.32421875 64.890625 C-21.79934881 65.22744562 -30.99432071 62.15287407 -39.43359375 54.31640625 C-46.28050902 46.8989147 -48.00517891 38.28625065 -47.99365234 28.41259766 C-47.64698528 19.7743031 -43.93733508 12.74765556 -38.18359375 6.37890625 C-27.56308622 -3.31704816 -13.16967601 -5.50174238 0 0 Z " fill="#040302" transform="translate(214.43359375,169.68359375)"/>
<path d="M0 0 C8.72672796 4.37019241 14.97429741 11.02116305 18.66796875 20.14453125 C21.17319244 29.53912007 20.23303234 39.74649298 15.49609375 48.25 C9.67495841 56.52525961 2.99962752 61.08215541 -6.50390625 64.25 C-18.2746431 65.32750662 -27.02425139 64.07354253 -36.65625 56.57421875 C-44.22312385 49.61525443 -47.44238076 40.29426578 -48.06640625 30.1875 C-47.91322247 21.3334775 -44.24684179 13.62543955 -38.5390625 6.953125 C-27.66533012 -3.12391808 -13.7839628 -5.76165644 0 0 Z " fill="#040302" transform="translate(384.50390625,169.75)"/>
<path d="M0 0 C4.35558627 1.99056205 5.81885258 4.0031803 7.75 8.3125 C11.38317473 15.37337429 16.0511734 18.2965846 23.1875 21.375 C33.30530837 23.03365711 44.39968381 23.3314575 53.25 17.5234375 C57.5121017 14.09181885 59.87335418 10.7550439 62.0859375 5.80078125 C63.54343559 2.92938544 65.21327288 1.55538258 68 0 C71.86283104 -0.48285388 74.2011176 -0.36312836 77.75 1.25 C81.55886917 4.2124538 82.82382588 5.72273767 83.5 10.625 C83.08575779 19.92818965 76.60120206 27.9556656 70 34 C55.93452684 44.64991138 39.02949433 46.21828936 22 45 C9.53734411 42.6945404 -2.32119768 35.2675693 -9.75 25.0625 C-13.69042478 19.18230762 -15.90146774 14.21174189 -15 7 C-11.30363912 0.87146115 -7.06341075 -1.06905676 0 0 Z " fill="#060403" transform="translate(253,238)"/>
<path d="M0 0 C2.09588898 -0.00435836 4.18963989 -0.04073658 6.28515625 -0.07861328 C18.01802769 -0.17666101 29.22619112 1.47948217 38.36328125 9.37060547 C40.23929998 13.12264293 40.01376823 17.29379104 39.36328125 21.37060547 C34.06291973 27.78683257 25.37982395 30.23934492 17.36328125 31.37060547 C13.12341411 31.55858766 8.88637408 31.55642173 4.64257812 31.5559082 C2.63259368 31.55808456 0.62316819 31.576249 -1.38671875 31.59521484 C-19.66131501 31.62251753 -19.66131501 31.62251753 -27.57421875 26.99560547 C-28.63962891 26.39619141 -28.63962891 26.39619141 -29.7265625 25.78466797 C-32.58521526 23.6684465 -34.36707744 21.72852881 -35.0703125 18.18701172 C-35.07687511 14.40038722 -34.9450209 11.94867201 -33.13671875 8.55810547 C-23.72496489 0.32282084 -11.9494968 -0.00277122 0 0 Z " fill="#EF8660" transform="translate(398.63671875,254.62939453125)"/>
<path d="M0 0 C2.338602 1.90069645 4.16697601 3.75582702 5.5234375 6.46875 C5.92481625 10.64308895 5.78538053 12.96426713 3.8359375 16.71875 C-1.46966782 23.02811849 -8.64211317 24.22210191 -16.4765625 25.46875 C-21.04230958 25.81034465 -25.57475876 25.90340318 -30.15258789 25.85986328 C-32.17336595 25.84367547 -34.19216982 25.85986818 -36.21289062 25.87890625 C-46.64190366 25.84806639 -56.61762534 24.37470811 -65.4765625 18.46875 C-68.49248059 15.07584215 -69.08263307 11.81998107 -68.8828125 7.390625 C-68.14913536 3.91976777 -66.24389702 2.54425089 -63.4765625 0.46875 C-47.45276454 -9.52870655 -16.13998323 -9.97929562 0 0 Z " fill="#EF855F" transform="translate(203.4765625,260.53125)"/>
<path d="M0 0 C3.0717718 1.71077974 5.40485654 3.80971307 7 7 C7.58931738 11.96710366 7.58572886 14.89009413 4.5 18.9375 C1.58709974 21.93284083 -0.86876333 23.10192453 -5.04296875 23.26953125 C-9.52523778 22.65221276 -12.17524356 20.04469149 -14.875 16.625 C-16.25784626 13.39835874 -16.49759088 11.48313618 -16 8 C-12.02020419 0.86381441 -7.9727206 -1.3717969 0 0 Z " fill="#FDFCF9" transform="translate(338,82)"/>
<path d="M0 0 C-3.52498161 2.87021404 -7.42304945 4.91232874 -11.4375 7 C-12.74935688 7.68624175 -14.06056858 8.37371847 -15.37109375 9.0625 C-15.99226074 9.38863281 -16.61342773 9.71476562 -17.25341797 10.05078125 C-18.81400263 10.8989156 -20.33440204 11.82004405 -21.84765625 12.75 C-24 14 -24 14 -26 14 C-26 14.66 -26 15.32 -26 16 C-27.64351457 17.36176922 -29.31522656 18.68962066 -31 20 C-32.68528688 21.64783606 -34.35697047 23.31002677 -36 25 C-36.33 24.01 -36.66 23.02 -37 22 C-36.38125 21.7525 -35.7625 21.505 -35.125 21.25 C-32.64931313 19.79371361 -32.04874998 18.62187494 -31 16 C-30.34 16 -29.68 16 -29 16 C-29 15.34 -29 14.68 -29 14 C-26.67856789 12.258179 -24.36311612 10.64680912 -21.9375 9.0625 C-21.28072266 8.61970703 -20.62394531 8.17691406 -19.94726562 7.72070312 C-15.76448038 4.95553179 -11.65694921 2.8546402 -7 1 C-4.53721199 -0.231394 -2.7204945 -0.07159196 0 0 Z " fill="#F0B131" transform="translate(142,78)"/>
<path d="M0 0 C5.89344426 1.26288091 10.72982889 3.10484082 16 6 C16.82628906 6.45246094 17.65257812 6.90492187 18.50390625 7.37109375 C20.67518541 8.57056409 22.84015665 9.78008848 25 11 C25 11.66 25 12.32 25 13 C25.54140625 13.07089844 26.0828125 13.14179687 26.640625 13.21484375 C29.96132537 14.31991126 32.08744565 16.31200763 34.75 18.5625 C35.73484375 19.38878906 36.7196875 20.21507813 37.734375 21.06640625 C38.48203125 21.70449219 39.2296875 22.34257813 40 23 C39.01 23.33 38.02 23.66 37 24 C35.3835138 22.65866039 33.77722005 21.30326472 32.22265625 19.890625 C25.84027792 14.46167753 18.79067894 10.04852654 11 7 C10.34 6.34 9.68 5.68 9 5 C6.95211518 4.1624193 4.8763398 3.47965013 2.77734375 2.78125 C1 2 1 2 0 0 Z " fill="#E6A628" transform="translate(432,69)"/>
<path d="M0 0 C1.16523193 0.3722168 1.16523193 0.3722168 2.35400391 0.75195312 C6.79360432 2.26028506 10.27688718 3.83134806 13.6875 7.1875 C13.6875 7.8475 13.6875 8.5075 13.6875 9.1875 C13.10613281 8.89617187 12.52476562 8.60484375 11.92578125 8.3046875 C10.81783203 7.75167969 10.81783203 7.75167969 9.6875 7.1875 C9.08292969 6.88070312 8.47835938 6.57390625 7.85546875 6.2578125 C-1.85104009 1.62472544 -12.60026814 -1.06076443 -23.3125 -1.8125 C-15.89926446 -6.06763071 -7.57201182 -2.45842559 0 0 Z " fill="#F7B636" transform="translate(414.3125,87.8125)"/>
<path d="M0 0 C0 3.78713193 -1.26892594 5.83354401 -3 9.1875 C-3.556875 10.27417969 -4.11375 11.36085938 -4.6875 12.48046875 C-5.3371875 13.72763672 -5.3371875 13.72763672 -6 15 C-6.66 15 -7.32 15 -8 15 C-8.12375 15.680625 -8.2475 16.36125 -8.375 17.0625 C-9 20 -9 20 -10 23.1875 C-11.20474118 27.78057574 -11.63887117 32.27681498 -12 37 C-13.98 37.495 -13.98 37.495 -16 38 C-15.85691406 37.45859375 -15.71382813 36.9171875 -15.56640625 36.359375 C-15.1666567 34.69421134 -14.82564992 33.01441772 -14.52734375 31.328125 C-13.22632438 24.53869944 -11.14845901 18.64497879 -8.0625 12.5 C-7.72661865 11.83000977 -7.3907373 11.16001953 -7.04467773 10.46972656 C-5.04399561 6.62802981 -2.83889158 3.30251369 0 0 Z " fill="#C8932C" transform="translate(103,103)"/>
<path d="M0 0 C0 0.66 0 1.32 0 2 C-4.32249895 2.71717395 -8.64582201 3.42908856 -12.9699707 4.13623047 C-14.43960702 4.3773136 -15.90901229 4.6198098 -17.37817383 4.86376953 C-19.4950071 5.21502192 -21.61263063 5.56111456 -23.73046875 5.90625 C-25.63928833 6.22045898 -25.63928833 6.22045898 -27.58666992 6.54101562 C-30.45503911 6.92672009 -33.11438566 7.09642822 -36 7 C-36.33 6.34 -36.66 5.68 -37 5 C-32.52321239 4.1535391 -28.0432467 3.32522463 -23.5625 2.5 C-22.30244141 2.26152344 -21.04238281 2.02304687 -19.74414062 1.77734375 C-13.04861206 0.5536179 -6.80642034 -0.29625333 0 0 Z " fill="#F3B439" transform="translate(228,58)"/>
<path d="M0 0 C7.30440976 0.61888827 14.15699453 2.11620488 21.25 3.9375 C22.3121875 4.20240234 23.374375 4.46730469 24.46875 4.74023438 C34.51588898 7.28357421 34.51588898 7.28357421 38 9 C38.495 10.485 38.495 10.485 39 12 C37.54148119 11.60485063 36.08320674 11.20879943 34.625 10.8125 C33.63242187 10.54308594 32.63984375 10.27367188 31.6171875 9.99609375 C28.9100248 9.25060078 26.20805609 8.49244756 23.5078125 7.72265625 C22.72325684 7.50053467 21.93870117 7.27841309 21.13037109 7.04956055 C19.57236992 6.60804698 18.01535567 6.16303217 16.45947266 5.71411133 C12.9732073 4.72989356 9.75464424 3.97069638 6.140625 3.5390625 C2.76360949 2.95942551 2.17060789 2.44132416 0 0 Z " fill="#EEAE34" transform="translate(394,59)"/>
<path d="M0 0 C0.495 1.485 0.495 1.485 1 3 C-2.89533944 4.12358953 -6.79143444 5.24451621 -10.68823242 6.36303711 C-12.01233336 6.74349987 -13.33622975 7.12467528 -14.65991211 7.5065918 C-16.56830091 8.05707476 -18.47750208 8.60473897 -20.38671875 9.15234375 C-22.10701294 9.6472229 -22.10701294 9.6472229 -23.86206055 10.15209961 C-26.56653927 10.88287489 -29.24625513 11.49255316 -32 12 C-32 11.34 -32 10.68 -32 10 C-31.26394531 9.73445313 -30.52789062 9.46890625 -29.76953125 9.1953125 C-28.79371094 8.84210938 -27.81789062 8.48890625 -26.8125 8.125 C-25.84957031 7.77695313 -24.88664063 7.42890625 -23.89453125 7.0703125 C-22.13354399 6.41915122 -20.38315333 5.73681209 -18.65625 5 C-15.06848496 3.64931198 -11.41034327 2.77327318 -7.6875 1.875 C-6.57665039 1.60236328 -6.57665039 1.60236328 -5.44335938 1.32421875 C-3.629696 0.8795787 -1.81495392 0.43934255 0 0 Z " fill="#F3B338" transform="translate(175,66)"/>
<path d="M0 0 C1.32 0.33 2.64 0.66 4 1 C4 1.66 4 2.32 4 3 C4.81210937 3.10634766 4.81210937 3.10634766 5.640625 3.21484375 C8.96132537 4.31991126 11.08744565 6.31200763 13.75 8.5625 C14.73484375 9.38878906 15.7196875 10.21507813 16.734375 11.06640625 C17.48203125 11.70449219 18.2296875 12.34257813 19 13 C18.01 13.33 17.02 13.66 16 14 C14.4921875 12.99609375 14.4921875 12.99609375 12.875 11.4375 C9.40792885 8.25254599 5.71621367 5.77701416 1.72265625 3.296875 C1.15417969 2.86890625 0.58570313 2.4409375 0 2 C0 1.34 0 0.68 0 0 Z " fill="#C27115" transform="translate(453,79)"/>
<path d="M0 0 C0.99 0.33 1.98 0.66 3 1 C2.34 1 1.68 1 1 1 C0.67 1.99 0.34 2.98 0 4 C-0.99 4.66 -1.98 5.32 -3 6 C-3.72382467 8.05925139 -3.72382467 8.05925139 -4 10 C-4.66 10 -5.32 10 -6 10 C-6 11.98 -6 13.96 -6 16 C-6.33 16 -6.66 16 -7 16 C-7.76140684 8.38593156 -7.76140684 8.38593156 -5.95703125 5.1015625 C-4.17646218 2.96070232 -2.50485776 1.25242888 0 0 Z " fill="#F6B72F" transform="translate(365,82)"/>
<path d="M0 0 C0.8125 1.625 0.8125 1.625 1 4 C-1.57896024 7.98566582 -2.68894669 9.65368403 -7.3125 10.875 C-8.6428125 10.936875 -8.6428125 10.936875 -10 11 C-10 10.34 -10 9.68 -10 9 C-9.05125 8.5875 -8.1025 8.175 -7.125 7.75 C-3.99283376 5.9959869 -3.13499394 5.29148243 -2 2 C-1.34 2 -0.68 2 0 2 C0 1.34 0 0.68 0 0 Z " fill="#F6B936" transform="translate(429,104)"/>
<path d="M0 0 C0.5625 1.9375 0.5625 1.9375 1 4 C0.67 4.33 0.34 4.66 0 5 C-0.23287008 6.68183948 -0.41264166 8.3712416 -0.5625 10.0625 C-0.68818359 11.44115234 -0.68818359 11.44115234 -0.81640625 12.84765625 C-0.87699219 13.55792969 -0.93757813 14.26820313 -1 15 C-2.32 15.33 -3.64 15.66 -5 16 C-4.85691406 15.44828125 -4.71382813 14.8965625 -4.56640625 14.328125 C-3.9544691 11.81285231 -3.43873189 9.28957492 -2.9375 6.75 C-2.67259766 5.41195312 -2.67259766 5.41195312 -2.40234375 4.046875 C-2.26957031 3.37140625 -2.13679688 2.6959375 -2 2 C-1.34 2 -0.68 2 0 2 C0 1.34 0 0.68 0 0 Z " fill="#E9AA38" transform="translate(92,125)"/>
<path d="M0 0 C0.66 0.33 1.32 0.66 2 1 C1.030625 1.825 0.06125 2.65 -0.9375 3.5 C-4.61012754 7.1121372 -4.82612422 9.95760232 -5 15 C-5.33 15 -5.66 15 -6 15 C-6.6271777 7.00348432 -6.6271777 7.00348432 -4.125 3 C-2 1 -2 1 0 0 Z " fill="#EC9159" transform="translate(370,260)"/>
<path d="M0 0 C0.99 0.33 1.98 0.66 3 1 C0.35039045 4.63094642 -2.01824456 6.89851796 -6 9 C-5.6875 7.0625 -5.6875 7.0625 -5 5 C-4.01 4.67 -3.02 4.34 -2 4 C-0.79117904 1.99983534 -0.79117904 1.99983534 0 0 Z " fill="#E7A937" transform="translate(111,94)"/>
<path d="M0 0 C3.46941546 0.45822468 6.67395049 0.89131683 10 2 C9.67 2.99 9.34 3.98 9 5 C6.69 4.34 4.38 3.68 2 3 C2 2.34 2 1.68 2 1 C1.34 0.67 0.68 0.34 0 0 Z " fill="#F8AC2C" transform="translate(408,87)"/>
<path d="M0 0 C0.66 0 1.32 0 2 0 C1.4140625 6.15234375 1.4140625 6.15234375 1 8 C0.01 8.495 0.01 8.495 -1 9 C-1.125 2.25 -1.125 2.25 0 0 Z " fill="#73521C" transform="translate(88,129)"/>
<path d="M0 0 C1.98 0.66 3.96 1.32 6 2 C5.34 3.65 4.68 5.3 4 7 C0 2.25 0 2.25 0 0 Z " fill="#B1864B" transform="translate(97,362)"/>
<path d="M0 0 C3.55780196 0.60990891 6.6828589 1.5783681 10 3 C9.67 3.66 9.34 4.32 9 5 C6.03 4.01 3.06 3.02 0 2 C0 1.34 0 0.68 0 0 Z " fill="#E1961C" transform="translate(444,75)"/>
<path d="M0 0 C0.95465783 2.16967689 1.14401212 3.56328793 0.3984375 5.82421875 C-0.35870385 7.5684743 -1.17609198 9.28627131 -2 11 C-3.53445094 7.93109813 -2.54984289 5.29905734 -2 2 C-1.34 2 -0.68 2 0 2 C0 1.34 0 0.68 0 0 Z " fill="#DBA130" transform="translate(92,125)"/>
</svg>
